<svg xmlns:xlink="http://www.w3.org/1999/xlink" width="512" xmlns="http://www.w3.org/2000/svg" height="512" id="screenshot-1c08d4b0-7595-8070-8003-53c813f6a83a" viewBox="0 0 512 512" style="-webkit-print-color-adjust: exact;" fill="none" version="1.1"><g id="shape-1c08d4b0-7595-8070-8003-53c813f6a83a"><defs><clipPath class="frame-clip-def frame-clip" id="frame-clip-1c08d4b0-7595-8070-8003-53c813f6a83a-rumext-id-1"><rect rx="0" ry="0" x="0" y="0" width="512" height="512" transform="matrix(1.000000, 0.000000, 0.000000, 1.000000, 0.000000, 0.000000)"/></clipPath></defs><g clip-path="url(#frame-clip-1c08d4b0-7595-8070-8003-53c813f6a83a-rumext-id-1)" fill="none"><clipPath class="frame-clip-def frame-clip" id="frame-clip-1c08d4b0-7595-8070-8003-53c813f6a83a-rumext-id-1"><rect rx="0" ry="0" x="0" y="0" width="512" height="512" transform="matrix(1.000000, 0.000000, 0.000000, 1.000000, 0.000000, 0.000000)"/></clipPath><g class="fills" id="fills-1c08d4b0-7595-8070-8003-53c813f6a83a"><rect rx="0" ry="0" x="0" y="0" transform="matrix(1.000000, 0.000000, 0.000000, 1.000000, 0.000000, 0.000000)" width="512" height="512" class="frame-background"/></g><g class="frame-children"><g id="shape-15a9df22-c1e3-8053-8003-53c98fa6a921" rx="0" ry="0"><g id="shape-1c08d4b0-7595-8070-8003-53c813f6a83c"><g class="fills" id="fills-1c08d4b0-7595-8070-8003-53c813f6a83c"><path rx="0" ry="0" d="M104.000,104.000L264.000,104.000L104.000,264.000L104.000,104.000Z" style="fill: rgb(255, 255, 255); fill-opacity: 1;"/></g></g><g id="shape-1c08d4b0-7595-8070-8003-53c813f6a83d"><g class="fills" id="fills-1c08d4b0-7595-8070-8003-53c813f6a83d"><path rx="0" ry="0" d="M264.000,104.000L424.000,104.000L264.000,264.000L264.000,104.000Z" style="fill: rgb(255, 255, 255); fill-opacity: 1;"/></g></g><g id="shape-1c08d4b0-7595-8070-8003-53c813f6a83e"><g class="fills" id="fills-1c08d4b0-7595-8070-8003-53c813f6a83e"><path rx="0" ry="0" d="M104.000,264.000L264.000,424.000L104.000,424.000L104.000,264.000Z" style="fill: rgb(255, 255, 255); fill-opacity: 1;"/></g></g><g id="shape-1c08d4b0-7595-8070-8003-53c813f6a83f"><g class="fills" id="fills-1c08d4b0-7595-8070-8003-53c813f6a83f"><path rx="0" ry="0" d="M264.000,264.000L424.000,264.000L264.000,424.000L264.000,264.000Z" style="fill: rgb(255, 255, 255); fill-opacity: 1;"/></g></g></g></g></g></g></svg>