<svg width="512" height="512" viewBox="0 0 512 512" fill="none" xmlns="http://www.w3.org/2000/svg">
<path d="M69 282V130.96H76.68V282H69ZM99.72 282V130.96H115.08V282H99.72ZM122.76 282V130.96H145.8V282H122.76ZM153.5 282V130.96H161.18V282H153.5ZM191.9 282V130.96H207.26V282H191.9ZM214.94 282V130.96H222.62V282H214.94ZM238 282V130.96H245.68V282H238ZM261.04 282V130.96H291.76V282H261.04ZM299.44 282V130.96H307.12V282H299.44ZM322.5 282V130.96H330.18V282H322.5ZM345.54 282V130.96H360.9V282H345.54ZM391.62 282V130.96H399.3V282H391.62ZM407 282V130.96H414.68V282H407ZM422.36 282V130.96H437.72V282H422.36ZM453.08 282V130.96H460.76V282H453.08Z" fill="#2A6DF4" fill-opacity="0.7"/>
<path d="M387.344 390H139.28V375.408C148.24 375.152 155.408 374.384 160.784 373.104C166.416 371.824 170.768 369.648 173.84 366.576C176.912 363.504 178.96 359.152 179.984 353.52C181.008 347.888 181.52 340.592 181.52 331.632V152.688C181.52 143.728 181.008 136.56 179.984 131.184C179.216 125.552 177.424 121.2 174.608 118.128C172.048 114.8 168.208 112.624 163.088 111.6C157.968 110.32 151.312 109.424 143.12 108.912V94.32H259.856V108.912C251.664 109.168 245.008 109.936 239.888 111.216C235.024 112.496 231.184 114.8 228.368 118.128C225.808 121.456 224.016 126.064 222.992 131.952C222.224 137.84 221.84 145.648 221.84 155.376V320.88C221.84 331.632 222.864 340.464 224.912 347.376C227.216 354.032 230.928 359.28 236.048 363.12C241.424 366.704 248.464 369.264 257.168 370.8C265.872 372.08 276.88 372.72 290.192 372.72C304.784 372.72 317.072 371.952 327.056 370.416C337.04 368.624 345.36 365.68 352.016 361.584C358.928 357.232 364.304 351.344 368.144 343.92C372.24 336.24 375.696 326.384 378.512 314.352H393.104L387.344 390Z" fill="black"/>
</svg>
