<svg width="512" height="512" viewBox="0 0 512 512" fill="none" xmlns="http://www.w3.org/2000/svg">
<path d="M179.768 76.6H251.96C267.32 76.6 281.144 78.8186 293.432 83.256C306.061 87.6933 316.643 94.1786 325.176 102.712C333.709 110.904 340.195 120.973 344.632 132.92C349.411 144.525 351.8 157.837 351.8 172.856C351.8 189.24 347.875 204.941 340.024 219.96C332.515 234.979 322.104 247.267 308.792 256.824C295.821 266.04 281.144 270.648 264.76 270.648C270.563 273.037 276.877 277.987 283.704 285.496C290.531 292.664 296.504 299.661 301.624 306.488C301.624 306.488 303.843 309.901 308.28 316.728C313.059 323.213 318.861 331.235 325.688 340.792C332.856 350.349 340.024 359.736 347.192 368.952C354.36 378.168 360.504 385.507 365.624 390.968C372.451 398.477 379.277 405.133 386.104 410.936C392.931 416.739 400.269 421.347 408.12 424.76C416.312 428.173 425.357 429.88 435.256 429.88V435H407.096C391.395 435 377.741 432.611 366.136 427.832C354.872 423.053 345.315 417.251 337.464 410.424C329.613 403.256 322.957 396.429 317.496 389.944C316.472 388.579 313.571 384.653 308.792 378.168C304.355 371.683 298.893 364.003 292.408 355.128C286.264 345.912 280.12 336.867 273.976 327.992C267.832 319.117 262.541 311.608 258.104 305.464C253.667 298.979 251.107 295.224 250.424 294.2C243.939 285.667 236.771 277.816 228.92 270.648C221.069 263.48 212.536 259.896 203.32 259.896V254.776C203.32 254.776 205.88 254.947 211 255.288C216.461 255.288 222.947 255.117 230.456 254.776C239.331 254.435 249.059 253.069 259.64 250.68C270.221 248.291 280.12 243.341 289.336 235.832C298.552 228.323 305.549 216.888 310.328 201.528C311.352 197.773 312.205 193.165 312.888 187.704C313.571 181.901 313.741 176.269 313.4 170.808C313.059 147.597 307.085 129.165 295.48 115.512C284.216 101.517 269.027 94.008 249.912 92.984C240.355 92.3013 230.456 92.1307 220.216 92.472C210.317 92.472 201.955 92.472 195.128 92.472C188.301 92.472 184.888 92.472 184.888 92.472C184.888 92.1307 184.376 90.7653 183.352 88.376C182.669 85.6453 181.816 83.0853 180.792 80.696C180.109 77.9653 179.768 76.6 179.768 76.6ZM186.424 76.6V435H153.144V76.6H186.424ZM154.68 397.624V435H113.72V429.88C113.72 429.88 114.744 429.88 116.792 429.88C119.181 429.88 120.376 429.88 120.376 429.88C129.251 429.88 136.76 426.808 142.904 420.664C149.389 414.179 152.803 406.499 153.144 397.624H154.68ZM154.68 113.976H153.144C152.803 105.101 149.389 97.592 142.904 91.448C136.76 84.9626 129.251 81.72 120.376 81.72C120.376 81.72 119.181 81.72 116.792 81.72C114.744 81.72 113.72 81.72 113.72 81.72V76.6H154.68V113.976ZM184.888 397.624H186.424C186.424 406.499 189.667 414.179 196.152 420.664C202.637 426.808 210.317 429.88 219.192 429.88C219.192 429.88 220.216 429.88 222.264 429.88C224.312 429.88 225.336 429.88 225.336 429.88V435H184.888V397.624Z" fill="#142C48"/>
</svg>
