<svg width="1500" height="500" viewBox="0 0 1500 500" fill="none" xmlns="http://www.w3.org/2000/svg">
<rect width="1500" height="500" fill="white"/>
<path d="M699.464 258.288H665.288C663.837 261.787 662.6 264.901 661.576 267.632C660.552 270.277 659.699 272.581 659.016 274.544C658.419 276.507 657.992 278.171 657.736 279.536C657.48 280.901 657.352 282.011 657.352 282.864C657.352 285.253 658.12 286.917 659.656 287.856C661.192 288.709 663.752 289.136 667.336 289.136V294H636.232V289.136C638.195 288.88 639.859 288.539 641.224 288.112C642.675 287.685 643.912 287.088 644.936 286.32C646.045 285.552 646.984 284.571 647.752 283.376C648.605 282.096 649.416 280.56 650.184 278.768L683.464 195.44H688.968L718.024 267.632C719.987 272.411 721.693 276.251 723.144 279.152C724.595 281.968 726.003 284.101 727.368 285.552C728.733 287.003 730.184 287.941 731.72 288.368C733.341 288.795 735.261 289.008 737.48 289.008V294H695.752V289.008C700.275 289.008 703.389 288.581 705.096 287.728C706.803 286.875 707.656 285.467 707.656 283.504C707.656 282.651 707.613 281.883 707.528 281.2C707.443 280.432 707.272 279.621 707.016 278.768C706.845 277.915 706.547 276.976 706.12 275.952C705.779 274.843 705.309 273.563 704.712 272.112L699.464 258.288ZM667.848 251.888H697.032L682.824 214.128L667.848 251.888ZM746.883 294H744.067V271.984H747.267C750.595 284.016 756.654 290.032 765.443 290.032C768.856 290.032 771.544 289.221 773.507 287.6C775.555 285.893 776.579 283.333 776.579 279.92C776.579 278.64 776.366 277.573 775.939 276.72C775.598 275.781 774.872 274.843 773.763 273.904C772.739 272.88 771.246 271.728 769.283 270.448C767.406 269.168 764.888 267.547 761.731 265.584C758.83 263.792 756.312 262.128 754.179 260.592C752.046 259.056 750.254 257.52 748.803 255.984C747.352 254.363 746.243 252.656 745.475 250.864C744.792 249.072 744.451 246.981 744.451 244.592C744.451 241.691 744.92 239.045 745.859 236.656C746.883 234.181 748.248 232.091 749.955 230.384C751.662 228.677 753.667 227.355 755.971 226.416C758.275 225.392 760.792 224.88 763.523 224.88C765.827 224.88 768.216 225.264 770.691 226.032C773.166 226.715 775.342 227.653 777.219 228.848L779.779 226.16H782.211V244.592H778.883C777.006 239.387 774.958 235.675 772.739 233.456C770.52 231.237 767.79 230.128 764.547 230.128C761.646 230.128 759.299 230.896 757.507 232.432C755.8 233.968 754.947 236.101 754.947 238.832C754.947 240.283 755.16 241.563 755.587 242.672C756.099 243.696 756.867 244.72 757.891 245.744C758.915 246.768 760.195 247.835 761.731 248.944C763.352 249.968 765.272 251.163 767.491 252.528C771.16 254.832 774.275 256.88 776.835 258.672C779.48 260.464 781.614 262.256 783.235 264.048C784.856 265.755 786.051 267.547 786.819 269.424C787.587 271.301 787.971 273.435 787.971 275.824C787.971 281.883 786.008 286.661 782.083 290.16C778.158 293.573 772.995 295.28 766.595 295.28C759.939 295.28 754.222 293.36 749.443 289.52L746.883 294ZM799.12 234.224V229.488C803.643 226.843 807.184 224.197 809.744 221.552C812.304 218.907 814.267 215.749 815.632 212.08H819.344V228.208H836.496V234.224H819.344V273.136C819.344 276.123 819.472 278.64 819.728 280.688C820.069 282.736 820.581 284.4 821.264 285.68C821.947 286.875 822.843 287.728 823.952 288.24C825.061 288.752 826.469 289.008 828.176 289.008C830.309 289.008 832.101 288.581 833.552 287.728C835.088 286.789 836.581 285.253 838.032 283.12L841.232 285.552C840.037 288.709 837.947 291.141 834.96 292.848C832.059 294.469 828.432 295.28 824.08 295.28C818.448 295.28 814.139 293.957 811.152 291.312C808.251 288.581 806.8 284.699 806.8 279.664V234.224H799.12ZM870.791 273.648C870.791 277.147 870.876 279.92 871.047 281.968C871.218 284.016 871.644 285.595 872.327 286.704C873.095 287.728 874.162 288.411 875.527 288.752C876.892 289.093 878.812 289.349 881.287 289.52V294H847.239V289.52C849.714 289.435 851.676 289.221 853.127 288.88C854.578 288.453 855.687 287.728 856.455 286.704C857.223 285.68 857.692 284.229 857.863 282.352C858.119 280.389 858.247 277.787 858.247 274.544V259.568C858.247 253.765 858.162 249.243 857.991 246C857.906 242.757 857.479 240.368 856.711 238.832C856.028 237.296 854.919 236.4 853.383 236.144C851.847 235.803 849.714 235.632 846.983 235.632V231.152L869.383 226.288L871.175 242.16H871.687C872.796 239.6 874.162 237.253 875.783 235.12C877.49 232.987 879.324 231.195 881.287 229.744C883.25 228.208 885.298 227.013 887.431 226.16C889.564 225.307 891.74 224.88 893.959 224.88C896.69 224.88 898.823 225.563 900.359 226.928C901.98 228.208 902.791 229.957 902.791 232.176C902.791 234.224 902.151 235.845 900.871 237.04C899.591 238.149 897.756 238.704 895.367 238.704C894.002 238.704 892.85 238.533 891.911 238.192C890.972 237.851 890.119 237.509 889.351 237.168C888.668 236.741 887.986 236.357 887.303 236.016C886.706 235.675 886.023 235.504 885.255 235.504C882.951 235.504 880.647 236.997 878.343 239.984C876.039 242.885 874.247 246.597 872.967 251.12C872.284 253.595 871.73 256.411 871.303 259.568C870.962 262.64 870.791 265.883 870.791 269.296V273.648ZM943.6 224.88C948.464 224.88 953.072 225.776 957.424 227.568C961.776 229.275 965.573 231.664 968.816 234.736C972.144 237.808 974.747 241.477 976.624 245.744C978.587 249.925 979.568 254.533 979.568 259.568C979.568 264.773 978.587 269.552 976.624 273.904C974.747 278.256 972.144 282.011 968.816 285.168C965.573 288.325 961.776 290.8 957.424 292.592C953.072 294.384 948.464 295.28 943.6 295.28C938.821 295.28 934.256 294.427 929.904 292.72C925.637 290.928 921.883 288.453 918.64 285.296C915.397 282.139 912.837 278.384 910.96 274.032C909.083 269.595 908.144 264.773 908.144 259.568C908.144 254.533 909.083 249.883 910.96 245.616C912.837 241.349 915.397 237.68 918.64 234.608C921.883 231.536 925.637 229.147 929.904 227.44C934.256 225.733 938.821 224.88 943.6 224.88ZM943.6 231.024C940.443 231.024 937.541 231.707 934.896 233.072C932.336 234.437 930.117 236.4 928.24 238.96C926.448 241.435 925.04 244.464 924.016 248.048C923.077 251.547 922.608 255.429 922.608 259.696C922.608 264.133 923.077 268.144 924.016 271.728C925.04 275.312 926.448 278.384 928.24 280.944C930.117 283.419 932.336 285.339 934.896 286.704C937.456 288.069 940.357 288.752 943.6 288.752C946.843 288.752 949.787 288.069 952.432 286.704C955.077 285.339 957.339 283.376 959.216 280.816C961.093 278.256 962.544 275.184 963.568 271.6C964.592 268.016 965.104 264.048 965.104 259.696C965.104 255.429 964.592 251.547 963.568 248.048C962.544 244.549 961.093 241.563 959.216 239.088C957.339 236.528 955.077 234.565 952.432 233.2C949.787 231.749 946.843 231.024 943.6 231.024ZM1144.68 273.648C1144.68 276.976 1144.81 279.664 1145.07 281.712C1145.41 283.675 1146.01 285.253 1146.86 286.448C1147.71 287.557 1148.91 288.325 1150.44 288.752C1151.98 289.179 1154.03 289.435 1156.59 289.52V294H1119.85V289.52C1122.41 289.435 1124.5 289.179 1126.12 288.752C1127.75 288.24 1128.98 287.472 1129.84 286.448C1130.77 285.339 1131.37 283.845 1131.63 281.968C1131.97 280.005 1132.14 277.531 1132.14 274.544V258.16C1132.14 253.211 1132.05 249.157 1131.88 246C1131.8 242.757 1131.59 240.539 1131.24 239.344C1130.82 237.381 1129.84 236.059 1128.3 235.376C1126.76 234.608 1123.86 234.224 1119.6 234.224V229.744L1144.68 224.88V273.648ZM1129.96 198.896C1129.96 196.677 1130.73 194.8 1132.27 193.264C1133.8 191.728 1135.68 190.96 1137.9 190.96C1140.12 190.96 1142 191.728 1143.53 193.264C1145.07 194.8 1145.84 196.677 1145.84 198.896C1145.84 201.115 1145.07 202.992 1143.53 204.528C1142 206.064 1140.12 206.832 1137.9 206.832C1135.68 206.832 1133.8 206.064 1132.27 204.528C1130.73 202.992 1129.96 201.115 1129.96 198.896ZM1164.25 234.224V229.488C1168.77 226.843 1172.31 224.197 1174.87 221.552C1177.43 218.907 1179.39 215.749 1180.76 212.08H1184.47V228.208H1201.62V234.224H1184.47V273.136C1184.47 276.123 1184.6 278.64 1184.85 280.688C1185.19 282.736 1185.71 284.4 1186.39 285.68C1187.07 286.875 1187.97 287.728 1189.08 288.24C1190.19 288.752 1191.59 289.008 1193.3 289.008C1195.43 289.008 1197.23 288.581 1198.68 287.728C1200.21 286.789 1201.71 285.253 1203.16 283.12L1206.36 285.552C1205.16 288.709 1203.07 291.141 1200.09 292.848C1197.18 294.469 1193.56 295.28 1189.21 295.28C1183.57 295.28 1179.26 293.957 1176.28 291.312C1173.38 288.581 1171.93 284.699 1171.93 279.664V234.224H1164.25ZM1234.12 273.648C1234.12 277.147 1234.21 279.92 1234.38 281.968C1234.55 284.016 1234.98 285.595 1235.66 286.704C1236.43 287.728 1237.49 288.411 1238.86 288.752C1240.23 289.093 1242.15 289.349 1244.62 289.52V294H1210.57V289.52C1213.05 289.349 1215.01 289.093 1216.46 288.752C1217.91 288.411 1219.02 287.728 1219.79 286.704C1220.56 285.68 1221.03 284.229 1221.2 282.352C1221.45 280.389 1221.58 277.787 1221.58 274.544V220.912C1221.58 215.877 1221.49 211.867 1221.32 208.88C1221.24 205.893 1221.03 203.632 1220.68 202.096C1220.51 201.072 1220.21 200.261 1219.79 199.664C1219.45 198.981 1218.89 198.469 1218.12 198.128C1217.36 197.701 1216.33 197.403 1215.05 197.232C1213.77 197.061 1212.19 196.976 1210.32 196.976V192.624L1233.87 187.76V236.528H1234.38C1235.66 234.821 1237.24 233.285 1239.12 231.92C1241.08 230.469 1243.17 229.232 1245.39 228.208C1247.61 227.184 1249.91 226.373 1252.3 225.776C1254.77 225.179 1257.16 224.88 1259.47 224.88C1263.39 224.88 1266.98 225.563 1270.22 226.928C1273.55 228.293 1276.11 230.128 1277.9 232.432C1279.35 234.395 1280.42 236.997 1281.1 240.24C1281.78 243.397 1282.12 247.707 1282.12 253.168V273.648C1282.12 277.147 1282.21 279.92 1282.38 281.968C1282.55 283.931 1282.98 285.467 1283.66 286.576C1284.43 287.685 1285.49 288.411 1286.86 288.752C1288.23 289.093 1290.15 289.349 1292.62 289.52V294H1258.7V289.52C1261.09 289.435 1263.01 289.221 1264.46 288.88C1265.91 288.453 1266.98 287.728 1267.66 286.704C1268.43 285.68 1268.9 284.229 1269.07 282.352C1269.32 280.389 1269.45 277.787 1269.45 274.544V258.416C1269.45 248.859 1268.34 242.075 1266.12 238.064C1263.91 233.968 1260.19 231.92 1254.99 231.92C1250.98 231.92 1247.31 232.944 1243.98 234.992C1240.74 237.04 1238.18 239.856 1236.3 243.44C1235.87 244.379 1235.49 245.275 1235.15 246.128C1234.89 246.896 1234.68 247.792 1234.51 248.816C1234.34 249.84 1234.21 251.035 1234.12 252.4C1234.12 253.68 1234.12 255.301 1234.12 257.264V273.648ZM1362.44 282.096C1355.19 290.885 1346.19 295.28 1335.43 295.28C1330.4 295.28 1325.83 294.469 1321.74 292.848C1317.64 291.141 1314.1 288.795 1311.11 285.808C1308.21 282.736 1305.95 279.109 1304.33 274.928C1302.71 270.661 1301.9 265.968 1301.9 260.848C1301.9 255.643 1302.75 250.821 1304.46 246.384C1306.16 241.947 1308.55 238.149 1311.62 234.992C1314.78 231.835 1318.49 229.36 1322.76 227.568C1327.11 225.776 1331.85 224.88 1336.97 224.88C1345.25 224.88 1351.65 227.141 1356.17 231.664C1360.69 236.101 1362.95 242.501 1362.95 250.864C1362.95 252.059 1362.7 252.784 1362.19 253.04C1361.76 253.296 1360.69 253.424 1358.99 253.424H1316.87C1316.7 254.107 1316.57 254.96 1316.49 255.984C1316.4 256.923 1316.36 257.989 1316.36 259.184C1316.36 263.621 1316.87 267.675 1317.9 271.344C1319.01 274.928 1320.54 278 1322.51 280.56C1324.55 283.12 1326.94 285.125 1329.67 286.576C1332.49 287.941 1335.6 288.624 1339.02 288.624C1342.6 288.624 1345.93 287.856 1349 286.32C1352.07 284.699 1355.23 282.096 1358.47 278.512L1362.44 282.096ZM1341.32 247.536C1343.03 247.536 1344.39 247.493 1345.42 247.408C1346.44 247.323 1347.21 247.152 1347.72 246.896C1348.23 246.64 1348.57 246.299 1348.75 245.872C1348.92 245.36 1349 244.72 1349 243.952C1349 240.027 1347.72 236.912 1345.16 234.608C1342.69 232.219 1339.27 231.024 1334.92 231.024C1325.71 231.024 1319.99 236.528 1317.77 247.536H1341.32Z" fill="black"/>
<path d="M1110.95 294H1028.26V289.136C1031.25 289.051 1033.64 288.795 1035.43 288.368C1037.31 287.941 1038.76 287.216 1039.78 286.192C1040.8 285.168 1041.49 283.717 1041.83 281.84C1042.17 279.963 1042.34 277.531 1042.34 274.544V214.896C1042.34 211.909 1042.17 209.52 1041.83 207.728C1041.57 205.851 1040.97 204.4 1040.04 203.376C1039.18 202.267 1037.9 201.541 1036.2 201.2C1034.49 200.773 1032.27 200.475 1029.54 200.304V195.44H1068.45V200.304C1065.72 200.389 1063.5 200.645 1061.8 201.072C1060.17 201.499 1058.89 202.267 1057.96 203.376C1057.1 204.485 1056.51 206.021 1056.16 207.984C1055.91 209.947 1055.78 212.549 1055.78 215.792V270.96C1055.78 274.544 1056.12 277.488 1056.8 279.792C1057.57 282.011 1058.81 283.76 1060.52 285.04C1062.31 286.235 1064.65 287.088 1067.56 287.6C1070.46 288.027 1074.13 288.24 1078.56 288.24C1083.43 288.24 1087.52 287.984 1090.85 287.472C1094.18 286.875 1096.95 285.893 1099.17 284.528C1101.48 283.077 1103.27 281.115 1104.55 278.64C1105.91 276.08 1107.07 272.795 1108 268.784H1112.87L1110.95 294Z" fill="#2A6DF4"/>
<rect width="500" height="500" fill="#F8F8F8"/>
<path d="M82 284.224V154.475H88.6065V284.224H82ZM108.426 284.224V154.475H121.639V284.224H108.426ZM128.245 284.224V154.475H148.065V284.224H128.245Z" fill="#2A6DF4" fill-opacity="0.7"/>
<path d="M154.689 284.224V154.475H161.295V284.224H154.689ZM187.721 284.224V154.475H200.934V284.224H187.721ZM207.541 284.224V154.475H214.147V284.224H207.541Z" fill="#2A6DF4" fill-opacity="0.7"/>
<path d="M227.377 284.224V154.475H233.984V284.224H227.377ZM247.197 284.224V154.475H273.623V284.224H247.197ZM280.229 284.224V154.475H286.836V284.224H280.229Z" fill="#2A6DF4" fill-opacity="0.7"/>
<path d="M300.066 284.224V154.475H306.672V284.224H300.066ZM319.885 284.224V154.475H333.098V284.224H319.885ZM359.524 284.224V154.475H366.131V284.224H359.524Z" fill="#2A6DF4" fill-opacity="0.7"/>
<path d="M372.755 284.224V154.475H379.361V284.224H372.755ZM385.968 284.224V154.475H399.181V284.224H385.968ZM412.394 284.224V154.475H419V284.224H412.394Z" fill="#2A6DF4" fill-opacity="0.7"/>
<path d="M355.846 377H142.456V364.465C150.164 364.245 156.33 363.585 160.954 362.486C165.799 361.386 169.543 359.517 172.186 356.878C174.828 354.239 176.59 350.5 177.471 345.662C178.352 340.824 178.792 334.557 178.792 326.86V173.14C178.792 165.443 178.352 159.286 177.471 154.668C176.81 149.829 175.269 146.091 172.846 143.452C170.644 140.593 167.341 138.724 162.936 137.844C158.532 136.745 152.806 135.975 145.76 135.535V123H246.178V135.535C239.131 135.755 233.406 136.415 229.001 137.514C224.817 138.614 221.514 140.593 219.092 143.452C216.889 146.311 215.348 150.269 214.467 155.327C213.806 160.385 213.476 167.093 213.476 175.449V317.623C213.476 326.86 214.357 334.447 216.119 340.384C218.101 346.102 221.294 350.61 225.698 353.909C230.323 356.988 236.379 359.187 243.866 360.506C251.353 361.606 260.823 362.156 272.274 362.156C284.826 362.156 295.397 361.496 303.985 360.177C312.574 358.637 319.731 356.108 325.456 352.59C331.402 348.851 336.027 343.793 339.33 337.416C342.853 330.818 345.826 322.352 348.249 312.016H360.801L355.846 377Z" fill="black"/>
</svg>
