<svg width="512" height="512" viewBox="0 0 512 512" fill="none" xmlns="http://www.w3.org/2000/svg">
<g clip-path="url(#clip0_5_3)">
<path d="M60 297.68V146.64H67.68V297.68H60ZM90.72 297.68V146.64H106.08V297.68H90.72ZM113.76 297.68V146.64H136.8V297.68H113.76Z" fill="#2A6DF4" fill-opacity="0.7"/>
<path d="M144.5 297.68V146.64H152.18V297.68H144.5ZM182.9 297.68V146.64H198.26V297.68H182.9ZM205.94 297.68V146.64H213.62V297.68H205.94Z" fill="#2A6DF4" fill-opacity="0.7"/>
<path d="M229 297.68V146.64H236.68V297.68H229ZM252.04 297.68V146.64H282.76V297.68H252.04ZM290.44 297.68V146.64H298.12V297.68H290.44Z" fill="#2A6DF4" fill-opacity="0.7"/>
<path d="M313.5 297.68V146.64H321.18V297.68H313.5ZM336.54 297.68V146.64H351.9V297.68H336.54ZM382.62 297.68V146.64H390.3V297.68H382.62Z" fill="#2A6DF4" fill-opacity="0.7"/>
<path d="M398 297.68V146.64H405.68V297.68H398ZM413.36 297.68V146.64H428.72V297.68H413.36ZM444.08 297.68V146.64H451.76V297.68H444.08Z" fill="#2A6DF4" fill-opacity="0.7"/>
<path d="M378.344 404.68H130.28V390.088C139.24 389.832 146.408 389.064 151.784 387.784C157.416 386.504 161.768 384.328 164.84 381.256C167.912 378.184 169.96 373.832 170.984 368.2C172.008 362.568 172.52 355.272 172.52 346.312V167.368C172.52 158.408 172.008 151.24 170.984 145.864C170.216 140.232 168.424 135.88 165.608 132.808C163.048 129.48 159.208 127.304 154.088 126.28C148.968 125 142.312 124.104 134.12 123.592V109H250.856V123.592C242.664 123.848 236.008 124.616 230.888 125.896C226.024 127.176 222.184 129.48 219.368 132.808C216.808 136.136 215.016 140.744 213.992 146.632C213.224 152.52 212.84 160.328 212.84 170.056V335.56C212.84 346.312 213.864 355.144 215.912 362.056C218.216 368.712 221.928 373.96 227.048 377.8C232.424 381.384 239.464 383.944 248.168 385.48C256.872 386.76 267.88 387.4 281.192 387.4C295.784 387.4 308.072 386.632 318.056 385.096C328.04 383.304 336.36 380.36 343.016 376.264C349.928 371.912 355.304 366.024 359.144 358.6C363.24 350.92 366.696 341.064 369.512 329.032H384.104L378.344 404.68Z" fill="black"/>
</g>
<defs>
<clipPath id="clip0_5_3">
<rect width="512" height="512" fill="white"/>
</clipPath>
</defs>
</svg>
